<svg width="27" height="26" viewBox="0 0 27 26" fill="none" xmlns="http://www.w3.org/2000/svg">
<g clip-path="url(#clip0_218_1551)">
<path d="M9.26338 20.4566V25.2361H1.21301C1.15425 25.2361 1.0979 25.2136 1.05635 25.1736C1.0148 25.1336 0.991455 25.0793 0.991455 25.0227V20.4566H9.26418H9.26338Z" fill="#ED524E"/>
<path d="M26.0074 21.9861V25.0227C26.0074 25.1405 25.9082 25.2361 25.7859 25.2361H17.7351V21.9861H26.0074Z" fill="#FDC72E"/>
<path d="M8.72095 16.58H18.2778V25.2361H8.72095V16.58Z" fill="#70C1F9"/>
<path d="M26.3195 20.7105V21.8278C26.3195 21.8697 26.3022 21.91 26.2714 21.9397C26.2406 21.9694 26.1988 21.9861 26.1552 21.9861H18.2791V20.5522H26.1552C26.2461 20.5522 26.3195 20.623 26.3195 20.7105ZM18.7611 15.7376V16.8579C18.7611 16.9421 18.6897 17.0147 18.5983 17.0147H8.40584C8.36222 17.0148 8.32029 16.9985 8.28905 16.9692C8.2578 16.9399 8.23972 16.8999 8.23868 16.8579V15.7376C8.23868 15.6535 8.31412 15.5809 8.40544 15.5809H18.5979C18.6893 15.5809 18.7607 15.6535 18.7607 15.7376H18.7611ZM0.680664 19.1811V20.2984C0.680664 20.3855 0.75412 20.4566 0.845046 20.4566H8.72111V19.0228H0.845046C0.80145 19.0228 0.759638 19.0395 0.728811 19.0692C0.697983 19.0989 0.680664 19.1391 0.680664 19.1811ZM16.8636 12.2682V15.5813H10.1342V12.2686C10.1342 11.9264 10.4221 11.6491 10.7775 11.6491H16.2208C16.5757 11.6491 16.864 11.9264 16.864 12.2686L16.8636 12.2682Z" fill="#4F5D99"/>
<path d="M10.1362 15.2635H16.8648V15.5816H10.1362V15.2635Z" fill="#3D4A75"/>
<path d="M12.8098 8.14144H14.1888V11.6484H12.8098V8.14144Z" fill="#F9AC00"/>
<path d="M15.0556 8.31159H11.9427C8.9048 8.31159 6.43311 5.93144 6.43311 3.00606C6.43311 2.81565 6.59352 2.66117 6.79125 2.66117H20.2071C20.4052 2.66117 20.5652 2.81565 20.5652 3.00606C20.5652 5.93144 18.0939 8.31159 15.0556 8.31159ZM7.1629 3.35094C7.34674 5.73567 9.42058 7.62182 11.9427 7.62182H15.0556C17.5781 7.62182 19.652 5.73567 19.8358 3.35094H7.1629Z" fill="#F9AC00"/>
<path d="M16.8512 7.36412V7.36641C16.6916 7.71588 16.5098 8.04241 16.3025 8.34141C16.1358 8.58087 15.9454 8.80419 15.7339 9.00824C15.1562 9.55347 14.4252 9.89606 13.4985 9.89606C13.2941 9.89611 13.0903 9.8769 12.8898 9.83871C9.09946 9.10459 9.09668 1.54815 9.09668 1.52941H17.9019C17.9019 1.52941 17.9713 4.90291 16.8512 7.36374V7.36412Z" fill="#FDC72E"/>
<path d="M15.9471 5.36326C15.9467 5.92222 15.716 6.4582 15.3056 6.85345C14.8951 7.24869 14.3385 7.47087 13.7581 7.47118C12.5498 7.47118 11.5691 6.52676 11.5691 5.36326C11.5691 4.19976 12.5498 3.25535 13.7581 3.25535C14.3385 3.25566 14.8951 3.47784 15.3056 3.87308C15.716 4.26833 15.9467 4.8043 15.9471 5.36326Z" fill="#F9AC00"/>
<path d="M14.5607 11.4316V11.6484H12.438V11.4316C12.438 11.2182 12.6179 11.0454 12.839 11.0454H14.1596C14.3812 11.0454 14.5607 11.2182 14.5607 11.4316Z" fill="#FDC72E"/>
<path d="M16.0397 12.7224V14.508C16.0397 14.7282 15.8542 14.9068 15.6255 14.9068H11.3722C11.2625 14.9067 11.1572 14.8646 11.0797 14.7899C11.0021 14.7151 10.9585 14.6137 10.9585 14.508V12.7224C10.9585 12.5022 11.1435 12.324 11.3722 12.324H15.6255C15.8542 12.324 16.0397 12.5022 16.0397 12.7224Z" fill="#E9E9FF"/>
<path d="M13.8391 14.1612V14.2908C13.8391 14.3138 13.8184 14.3336 13.795 14.3336H11.7077C11.6959 14.3335 11.6847 14.329 11.6765 14.321C11.6682 14.3129 11.6636 14.3021 11.6636 14.2908V14.1612C11.6635 14.1556 11.6645 14.15 11.6667 14.1448C11.6689 14.1396 11.6721 14.1348 11.6762 14.1308C11.6803 14.1268 11.6852 14.1237 11.6906 14.1215C11.696 14.1194 11.7018 14.1183 11.7077 14.1184H13.795C13.8188 14.1184 13.8391 14.1371 13.8391 14.1612ZM15.3344 13.5506V13.6802C15.3344 13.7028 15.3137 13.7226 15.2899 13.7226H11.7077C11.696 13.7225 11.6848 13.718 11.6766 13.7101C11.6684 13.7022 11.6637 13.6914 11.6636 13.6802V13.5502C11.6635 13.5446 11.6646 13.5391 11.6668 13.5339C11.669 13.5287 11.6723 13.524 11.6764 13.5201C11.6805 13.5161 11.6854 13.513 11.6907 13.5109C11.6961 13.5088 11.7019 13.5077 11.7077 13.5078H15.2899C15.3137 13.5078 15.3344 13.5261 15.3344 13.5506ZM15.3344 12.9396V13.0696C15.3344 13.0921 15.3137 13.1116 15.2899 13.1116H11.7077C11.6961 13.1115 11.685 13.1071 11.6767 13.0992C11.6685 13.0914 11.6638 13.0807 11.6636 13.0696V12.9396C11.6635 12.934 11.6646 12.9285 11.6668 12.9233C11.669 12.9181 11.6723 12.9134 11.6764 12.9095C11.6805 12.9055 11.6854 12.9024 11.6907 12.9003C11.6961 12.8982 11.7019 12.8971 11.7077 12.8971H15.2899C15.3137 12.8971 15.3344 12.9155 15.3344 12.9396ZM15.3344 14.1612V14.2908C15.3344 14.3138 15.3137 14.3336 15.2899 14.3336H14.2385C14.2267 14.3336 14.2154 14.3291 14.2071 14.3211C14.1987 14.3131 14.194 14.3022 14.194 14.2908V14.1612C14.1939 14.1556 14.195 14.1499 14.1972 14.1447C14.1994 14.1395 14.2027 14.1347 14.2068 14.1307C14.211 14.1267 14.2159 14.1235 14.2214 14.1214C14.2268 14.1193 14.2326 14.1183 14.2385 14.1184H15.2907C15.3141 14.1184 15.3348 14.1371 15.3348 14.1612H15.3344Z" fill="#4F5D99"/>
<path d="M15.6887 5.11397C15.6885 5.67306 15.4577 6.2092 15.0472 6.60453C14.6366 6.99987 14.0799 7.22206 13.4993 7.22226C12.291 7.22226 11.3103 6.27785 11.3103 5.11397C11.3103 3.95009 12.291 3.00606 13.4993 3.00606C14.0798 3.00626 14.6365 3.2284 15.047 3.62365C15.4576 4.01891 15.6884 4.55494 15.6887 5.11397Z" fill="#E9E9FF"/>
<path d="M14.24 5.32809C14.2292 5.33917 14.2211 5.35244 14.2163 5.36693C14.2115 5.38142 14.2101 5.39676 14.2122 5.41183L14.3369 6.10885C14.3399 6.12626 14.3378 6.14412 14.3308 6.16043C14.3238 6.17675 14.3122 6.19086 14.2974 6.20119C14.2825 6.21152 14.265 6.21765 14.2467 6.2189C14.2284 6.22015 14.2102 6.21647 14.194 6.20827L13.5456 5.87944C13.5314 5.87243 13.5158 5.86878 13.4999 5.86878C13.484 5.86878 13.4683 5.87243 13.4542 5.87944L12.8038 6.20827C12.7877 6.21651 12.7695 6.22022 12.7513 6.21897C12.7331 6.21772 12.7156 6.21155 12.7008 6.20118C12.6861 6.19081 12.6747 6.17665 12.6679 6.16032C12.6611 6.144 12.6592 6.12616 12.6625 6.10885L12.7864 5.41183C12.7892 5.39671 12.788 5.38117 12.7831 5.36657C12.7782 5.35197 12.7696 5.33876 12.7582 5.32809L12.2329 4.83485C12.2199 4.8227 12.2107 4.80729 12.2063 4.79037C12.2019 4.77344 12.2025 4.75567 12.208 4.73905C12.2135 4.72244 12.2238 4.70764 12.2376 4.69633C12.2514 4.68502 12.2682 4.67764 12.2861 4.67503L13.0127 4.57294C13.0285 4.57091 13.0436 4.56503 13.0564 4.55587C13.0693 4.54671 13.0795 4.53456 13.0862 4.52056L13.4117 3.887C13.42 3.8715 13.4325 3.85848 13.4479 3.84939C13.4633 3.84031 13.481 3.83549 13.4991 3.83549C13.5172 3.83549 13.5349 3.84031 13.5503 3.84939C13.5657 3.85848 13.5782 3.8715 13.5865 3.887L13.912 4.52056C13.919 4.53432 13.9293 4.54626 13.9421 4.55538C13.9549 4.56449 13.9698 4.57052 13.9855 4.57294L14.7121 4.67503C14.7915 4.6865 14.8241 4.78133 14.7665 4.83524L14.24 5.32847V5.32809Z" fill="#ED524E"/>
<path opacity="0.3" d="M15.7338 9.00824C15.1561 9.55347 14.4251 9.89606 13.4984 9.89606C13.294 9.89611 13.0902 9.8769 12.8897 9.83871L9.98999 1.52941H13.1208L15.7334 9.00824H15.7338ZM16.8516 7.36412V7.36641C16.6915 7.71588 16.5101 8.04241 16.3024 8.34141L13.926 1.52979H14.8166L16.8516 7.36412Z" fill="white"/>
<path d="M18.2079 0.994118V1.64412C18.208 1.67434 18.2019 1.70429 18.19 1.73223C18.178 1.76018 18.1604 1.78558 18.1383 1.80697C18.1161 1.82836 18.0898 1.84531 18.0608 1.85687C18.0317 1.86842 18.0007 1.87435 17.9693 1.87429H9.03029C8.99887 1.8744 8.96774 1.86851 8.93869 1.85698C8.90965 1.84545 8.88325 1.8285 8.86104 1.8071C8.83882 1.78571 8.82122 1.76029 8.80924 1.73232C8.79727 1.70435 8.79116 1.67437 8.79126 1.64412V0.994118C8.79126 0.867942 8.89886 0.764324 9.03029 0.764324H17.9693C18.1003 0.764324 18.2079 0.867559 18.2079 0.994118Z" fill="#F9AC00"/>
<path opacity="0.3" d="M13.2407 1.87468H10.1122L9.7251 0.763943H12.8539L13.2407 1.87468ZM14.9385 1.87468H14.0479L13.6607 0.763943H14.5494L14.9385 1.87468Z" fill="white"/>
</g>
<defs>
<clipPath id="clip0_218_1551">
<rect width="27" height="26" fill="white"/>
</clipPath>
</defs>
</svg>
